<svg width="102" height="37" viewBox="0 0 102 37" fill="none" xmlns="http://www.w3.org/2000/svg">
<path d="M55.8765 20.4245V23.367H60.4545V24.4179H54.5138V20.4245H55.8765ZM54.5138 18.2526V14.6795H60.2446V15.7304H55.8765V18.2526H54.5138Z" fill="#3E989A"/>
<path d="M62.2367 14.8187C63.0755 14.7136 64.0538 14.6085 65.1371 14.6085C67.0937 14.6085 68.4919 15.0289 69.4352 15.8346C70.3785 16.6403 70.9379 17.7612 70.9379 19.3376C70.9379 20.949 70.4135 22.2451 69.4002 23.1209C68.4219 24.0316 66.7793 24.522 64.7177 24.522C63.7394 24.522 62.9356 24.487 62.2367 24.4169V14.8187ZM63.6344 23.4361C63.9838 23.5062 64.4732 23.5062 65.0321 23.5062C67.9675 23.5062 69.5402 21.9999 69.5402 19.3726C69.5402 17.0606 68.1424 15.5894 65.242 15.5894C64.5428 15.5894 63.9838 15.6594 63.6344 15.7295V23.4361Z" fill="#3E989A"/>
<path d="M74.0826 14.6795V24.4529H72.7198V14.6795H74.0826Z" fill="#3E989A"/>
<path d="M88.0611 21.3698L86.9778 24.4524H85.5801L89.1793 14.679H90.8215L94.4212 24.4524H92.9535L91.8353 21.3698H88.0611ZM91.5554 20.3889L90.5071 17.5865C90.2626 16.956 90.1227 16.3605 89.9482 15.8H89.9132C89.7382 16.3955 89.5987 16.991 89.3888 17.5515L88.3405 20.3889H91.5554Z" fill="#3E989A"/>
<path d="M95.9928 14.6795H97.356V23.402H101.899V24.4529H95.9928V14.6795Z" fill="#3E989A"/>
<path d="M8.73629 24.2068H4.50798V19.688H0.00012207V15.4493H4.50798V10.9304H8.73629V15.4493H13.2442V19.688H8.73629V24.2068Z" fill="#3E989A"/>
<path d="M25.7195 19.0571C25.7195 18.7068 25.4749 18.5316 25.2303 18.5316C25.0555 18.5316 24.4615 18.4966 24.4615 18.4966C23.1685 18.2163 23.4131 16.0095 23.4131 16.0095C24.6362 8.47798 21.9105 0.771378 15.0264 0.0357441C13.7684 -0.0693463 9.74975 -0.209467 7.23373 3.88905H7.19879C7.05902 3.85403 6.84936 3.88906 6.6397 3.99414L5.45155 4.93994C5.2419 5.15015 5.2419 5.43038 5.45155 5.67558L6.1854 6.41122C6.43 6.58636 6.74453 6.62139 6.91925 6.41122L7.72298 5.01004C7.86275 4.69474 7.86275 4.41451 7.72298 4.27438L7.68803 4.23936C9.64493 1.64713 12.8948 0.526166 14.7119 0.806406C24.4964 1.9624 23.7276 14.363 21.8406 18.8119C19.8837 24.6269 11.3922 32.4386 8.80625 33.7347L8.77131 33.7697L8.73637 33.7347C8.59659 33.6646 8.38694 33.6646 8.14229 33.7347L6.6397 34.2952C6.39506 34.4353 6.39506 34.7506 6.53487 35.0308L7.1289 35.8715C7.3386 36.1168 7.61815 36.1518 7.86275 35.9766L8.98097 34.8907C9.15572 34.6805 9.22561 34.5054 9.19067 34.3302V34.2952C15.306 30.3017 18.9402 25.5026 21.1068 21.9996C21.1068 21.9996 22.1901 20.4583 24.5663 20.4583C24.5663 20.4583 25.0905 20.4583 25.3351 20.4233C25.5797 20.3882 25.8243 20.108 25.8243 19.8277V19.0571H25.7195Z" fill="#3E989A"/>
<path d="M25.4047 19.9678H30.856L34.2107 33.0691L40.361 9.10847L45.6724 26.2032L49.2716 15.2738L51.0192 19.8627L58.9866 19.8977V18.8118H52.1725L49.1671 10.0893L45.7074 20.7735L40.361 3.50366L34.2107 27.6394L32.0092 18.9169H25.4047V19.9678Z" fill="#3E989A"/>
<path d="M10.833 24.2068H6.60466V19.688H2.0968V15.4493H6.60466V10.9304H10.833V15.4493H15.3408V19.688H10.833V24.2068Z" fill="#283D71"/>
<path d="M78.1709 24.0674C78.9748 24.6279 79.9881 24.9432 81.0363 24.9432C81.7702 24.9432 82.714 24.698 83.1329 24.4878C83.5523 24.2776 84.1467 23.9273 84.1467 23.9273L84.1817 22.4911C83.9018 22.8414 83.5523 23.1216 83.1679 23.3668C82.574 23.7172 81.8402 23.9273 81.0713 23.9273C78.7998 23.9273 76.9477 22.0707 76.9477 19.7938C76.9477 17.5168 78.7998 15.6602 81.0713 15.6602C81.2113 15.6602 81.3508 15.6602 81.4907 15.6952H81.5607L82.7835 17.6219C82.8535 17.762 83.0634 17.7971 83.1679 17.727L83.4128 17.5519L83.9367 18.3225C84.0067 18.4276 84.1117 18.4276 84.2162 18.3926L84.5311 18.1824C84.6356 18.1123 84.6356 18.0072 84.6006 17.9021L84.1117 17.0965L84.3561 16.9213C84.4961 16.8513 84.5311 16.6411 84.4611 16.536L81.8752 12.4725C81.7352 12.2623 81.4208 12.1923 81.2113 12.3324L81.0713 12.0871C81.0014 11.947 80.7919 11.912 80.6519 11.982L80.3025 12.1923C80.163 12.2623 80.128 12.4725 80.1975 12.6126L80.3725 12.8578C80.163 12.9979 80.093 13.3132 80.2325 13.5234L80.9314 14.6093H80.8619C78.136 14.7494 76.0044 16.9914 76.0044 19.7587C76.0044 21.265 76.6333 22.5962 77.6466 23.542L78.1709 24.0674Z" fill="#3E989A"/>
<path d="M81.6998 13.5583L83.7968 16.8861C83.8318 16.9212 83.9014 16.9562 83.9364 16.9212L84.0413 16.8511C84.0763 16.8161 84.1113 16.746 84.0763 16.711L81.9797 13.3831L81.6998 13.5583Z" fill="white"/>
<path d="M81.7706 13.0328L81.5961 12.7525C81.5611 12.7175 81.4911 12.6824 81.4561 12.7175L81.3512 12.7875C81.3162 12.8225 81.2816 12.8926 81.3162 12.9277L81.4911 13.2079L81.7706 13.0328Z" fill="white"/>
<path d="M77.6466 19.7933C77.6466 21.72 79.1838 23.2613 81.1059 23.2613C82.5036 23.2613 83.6919 22.4556 84.2508 21.2646C84.2858 21.2296 84.2858 21.1946 84.3208 21.1595C80.9314 22.1054 80.6865 18.9176 77.7511 18.9877C77.6816 19.1979 77.6466 19.5131 77.6466 19.7933ZM79.9177 22.0703C79.9177 21.72 80.1976 21.4748 80.512 21.4748C80.8614 21.4748 81.1059 21.755 81.1059 22.0703C81.1059 22.4206 80.8265 22.6658 80.512 22.6658C80.1976 22.6658 79.9177 22.4206 79.9177 22.0703ZM78.2405 20.0385C78.2405 19.7933 78.4154 19.6182 78.6599 19.6182C78.9044 19.6182 79.0793 19.7933 79.0793 20.0385C79.0793 20.2838 78.9044 20.4589 78.6599 20.4589C78.4154 20.4589 78.2405 20.2838 78.2405 20.0385Z" fill="#283D71"/>
<path d="M83.1334 20.6693C83.3844 20.6693 83.5878 20.4654 83.5878 20.2139C83.5878 19.9624 83.3844 19.7585 83.1334 19.7585C82.8828 19.7585 82.6794 19.9624 82.6794 20.2139C82.6794 20.4654 82.8828 20.6693 83.1334 20.6693Z" fill="#283D71"/>
<path d="M81.3164 19.4784C81.4511 19.4784 81.5609 19.3687 81.5609 19.2332C81.5609 19.0978 81.4511 18.988 81.3164 18.988C81.1813 18.988 81.0715 19.0978 81.0715 19.2332C81.0715 19.3687 81.1813 19.4784 81.3164 19.4784Z" fill="#283D71"/>
<path d="M81.1065 17.797C81.2609 17.797 81.3859 17.6716 81.3859 17.5168C81.3859 17.362 81.2609 17.2366 81.1065 17.2366C80.9521 17.2366 80.827 17.362 80.827 17.5168C80.827 17.6716 80.9521 17.797 81.1065 17.797Z" fill="#283D71"/>
<path d="M79.4642 18.4275C79.7147 18.4275 79.9181 18.2236 79.9181 17.9721C79.9181 17.7206 79.7147 17.5167 79.4642 17.5167C79.2131 17.5167 79.0098 17.7206 79.0098 17.9721C79.0098 18.2236 79.2131 18.4275 79.4642 18.4275Z" fill="#283D71"/>
<path d="M47.5942 27.2551H46.0916V26.7647H49.7258V27.2551H48.2231V31.2486H47.5942V27.2551Z" fill="#2D2D2D"/>
<path d="M53.5696 29.1469H51.6476V30.7583H53.7791V31.2487H51.0187V26.7649H53.6742V27.2553H51.6476V28.6915H53.5696V29.1469Z" fill="#2D2D2D"/>
<path d="M58.7767 31.1085C58.5323 31.2136 58.0779 31.3187 57.484 31.3187C56.0863 31.3187 55.038 30.513 55.038 29.0417C55.038 27.6405 56.0862 26.6947 57.6239 26.6947C58.2528 26.6947 58.6372 26.7998 58.7767 26.9049L58.6372 27.3953C58.3923 27.2902 58.0429 27.2201 57.6585 27.2201C56.5057 27.2201 55.7368 27.8857 55.7368 29.0768C55.7368 30.1627 56.4357 30.8983 57.6239 30.8983C58.0079 30.8983 58.3923 30.8283 58.6722 30.7231L58.7767 31.1085Z" fill="#2D2D2D"/>
<path d="M60.9429 26.7649V28.6565H63.319V26.7649H63.9478V31.2487H63.319V29.1469H60.9429V31.2487H60.3136V26.7649H60.9429Z" fill="#2D2D2D"/>
<path d="M65.8005 31.2487V26.7649H66.4994L68.072 29.0418C68.4215 29.5673 68.7359 30.0577 68.9458 30.5131C68.8759 29.9176 68.8759 29.3571 68.8759 28.6565V26.7649H69.4698V31.2487H68.8409L67.2682 28.9718C66.9188 28.4813 66.6044 27.9559 66.3599 27.4655H66.3249C66.3599 28.026 66.3599 28.5865 66.3599 29.322V31.2487H65.8005Z" fill="#2D2D2D"/>
<path d="M75.5849 28.9716C75.5849 30.5129 74.5716 31.3537 73.3134 31.3537C72.0206 31.3537 71.1118 30.4429 71.1118 29.0767C71.1118 27.6405 72.0906 26.7297 73.3833 26.7297C74.7115 26.6947 75.5849 27.6405 75.5849 28.9716ZM71.7411 29.0417C71.7411 29.9875 72.3 30.8632 73.3134 30.8632C74.3271 30.8632 74.886 30.0225 74.886 29.0066C74.886 28.1309 74.3621 27.1851 73.3134 27.1851C72.2651 27.15 71.7411 28.0608 71.7411 29.0417Z" fill="#2D2D2D"/>
<path d="M77.1227 26.7647H77.7516V30.7581H79.8486V31.2486H77.1227V26.7647Z" fill="#2D2D2D"/>
<path d="M85.2298 28.9716C85.2298 30.5129 84.216 31.3537 82.9582 31.3537C81.6651 31.3537 80.7567 30.4429 80.7567 29.0767C80.7567 27.6405 81.735 26.7297 83.0282 26.7297C84.356 26.6947 85.2298 27.6405 85.2298 28.9716ZM81.4206 29.0417C81.4206 29.9875 81.9799 30.8632 82.9932 30.8632C84.0065 30.8632 84.5654 30.0225 84.5654 29.0066C84.5654 28.1309 84.0415 27.1851 82.9932 27.1851C81.9449 27.15 81.4206 28.0608 81.4206 29.0417Z" fill="#2D2D2D"/>
<path d="M90.5412 31.0738C90.2617 31.1789 89.7024 31.319 89.0385 31.319C88.3047 31.319 87.6758 31.1438 87.1864 30.7235C86.767 30.3381 86.4875 29.7426 86.4875 29.042C86.4875 27.7109 87.5009 26.73 89.1435 26.73C89.7024 26.73 90.1568 26.8351 90.3667 26.9402L90.2267 27.4306C89.9473 27.3255 89.6329 27.2204 89.1435 27.2204C87.9552 27.2204 87.1514 27.886 87.1514 29.042C87.1514 30.198 87.9203 30.8636 89.0385 30.8636C89.4579 30.8636 89.7374 30.7935 89.8773 30.7585V29.4274H88.864V28.9719H90.4712V31.0738H90.5412Z" fill="#2D2D2D"/>
<path d="M92.8828 26.7647V31.2486H92.2539V26.7647H92.8828Z" fill="#2D2D2D"/>
<path d="M97.2857 29.1467H95.3636V30.7581H97.4952V31.2486H94.7347V26.7647H97.3902V27.2551H95.3636V28.6914H97.2857V29.1467Z" fill="#2D2D2D"/>
<path d="M98.9633 30.548C99.2428 30.7231 99.6622 30.8283 100.117 30.8283C100.78 30.8283 101.13 30.513 101.13 30.0576C101.13 29.6372 100.85 29.392 100.187 29.1818C99.3827 28.9366 98.8933 28.5513 98.8933 27.9207C98.8933 27.2201 99.5227 26.6947 100.501 26.6947C100.99 26.6947 101.375 26.7998 101.584 26.9049L101.409 27.3953C101.235 27.3253 100.92 27.1851 100.466 27.1851C99.8021 27.1851 99.5227 27.5354 99.5227 27.8507C99.5227 28.2711 99.8371 28.4812 100.501 28.7264C101.34 29.0067 101.759 29.392 101.759 30.0576C101.759 30.7582 101.2 31.3537 100.047 31.3537C99.5576 31.3537 99.0683 31.2136 98.7888 31.0735L98.9633 30.548Z" fill="#2D2D2D"/>
</svg>
