<svg width="21" height="17" viewBox="0 0 21 17" fill="none" xmlns="http://www.w3.org/2000/svg">
<path d="M2.09055 7.60314C7.32502 5.27469 10.8154 3.73959 12.562 2.99784C17.5484 0.880218 18.5846 0.512343 19.26 0.500118C19.4085 0.497568 19.7406 0.535143 19.9558 0.713343C20.1374 0.863868 20.1874 1.06719 20.2113 1.20984C20.2352 1.35257 20.265 1.67762 20.2413 1.93157C19.9711 4.83047 18.8019 11.8654 18.207 15.1122C17.9553 16.4861 17.4597 16.9467 16.9799 16.9918C15.9372 17.0897 15.1453 16.2882 14.1355 15.6122C12.5551 14.5546 11.6623 13.8961 10.1283 12.864C8.35552 11.6712 9.50475 11.0156 10.5151 9.94419C10.7794 9.66384 15.3737 5.39709 15.4627 5.01009C15.4738 4.96164 15.4841 4.78119 15.3791 4.68594C15.2741 4.59069 15.1192 4.62324 15.0073 4.64912C14.8489 4.68587 12.3242 6.38964 7.43347 9.76044C6.71685 10.2629 6.0678 10.5076 5.48625 10.4948C4.84515 10.4807 3.61192 10.1247 2.69512 9.82044C1.57065 9.44717 0.676904 9.24992 0.754724 8.61609C0.795261 8.28594 1.24052 7.94829 2.09055 7.60314Z" fill="#1D2020"/>
</svg>
