<svg width="36" height="36" viewBox="0 0 36 36" fill="none" xmlns="http://www.w3.org/2000/svg">
<path fill-rule="evenodd" clip-rule="evenodd" d="M35.0896 23.2571V12.7858C35.0896 3.22129 32.8313 0.94573 23.2639 0.94573C-0.132462 0.79561 0.789495 -0.155869 0.946455 23.2395C0.946455 32.8039 3.20474 35.0795 12.7721 35.0795H20.7133C30.8783 35.2548 35.3452 34.556 35.0896 23.2571ZM28.5102 25.3019H26.0205C25.078 25.3019 24.7936 24.5372 23.1041 22.8485C21.6281 21.4261 21.0057 21.2483 20.6323 21.2483C20.1165 21.2483 19.9743 21.3905 19.9743 22.1015V24.3414C19.9743 24.9458 19.7788 25.3015 18.1959 25.3015C15.5639 25.3015 12.6655 23.7013 10.6024 20.7504C7.50818 16.4304 6.67226 13.1591 6.67226 12.5014C6.67226 12.128 6.81446 11.79 7.52582 11.79H10.0156C10.6557 11.79 10.8868 12.0744 11.1359 12.7321C12.1565 16.078 15.6525 21.6454 15.7061 18.4388V14.7766C15.5995 13.1054 14.7103 12.9632 14.7103 12.3588C14.7103 12.092 14.9595 11.79 15.3504 11.79H19.2625C19.7961 11.79 19.9739 12.0568 19.9739 12.6965V17.6389C20.0416 18.824 20.7789 18.3578 21.5212 17.5856C23.3172 15.5945 24.5797 12.501 24.5797 12.501C24.7399 12.1277 25.0243 11.79 25.6644 11.79H28.1542C28.9012 11.79 29.061 12.1633 28.9012 12.6968C28.5988 14.1545 25.5579 18.4212 25.5579 18.4392C25.2911 18.8482 25.1845 19.0616 25.5579 19.5415C26.2746 20.4347 31.4975 25.1514 28.5102 25.3019Z" fill="white"/>
<path d="M28.5102 25.3019H26.0205C25.078 25.3019 24.7936 24.5372 23.1041 22.8485C21.6281 21.4261 21.0057 21.2483 20.6323 21.2483C20.1165 21.2483 19.9743 21.3905 19.9743 22.1015V24.3414C19.9743 24.9458 19.7788 25.3015 18.1959 25.3015C15.5639 25.3015 12.6655 23.7013 10.6024 20.7504C7.50818 16.4304 6.67226 13.1591 6.67226 12.5014C6.67226 12.128 6.81446 11.79 7.52582 11.79H10.0156C10.6557 11.79 10.8868 12.0744 11.1359 12.7321C12.1565 16.078 15.6525 21.6454 15.7061 18.4388V14.7766C15.5995 13.1054 14.7103 12.9632 14.7103 12.3588C14.7103 12.092 14.9595 11.79 15.3504 11.79H19.2625C19.7961 11.79 19.9739 12.0568 19.9739 12.6965V17.6389C20.0416 18.824 20.7789 18.3578 21.5212 17.5856C23.3172 15.5945 24.5797 12.501 24.5797 12.501C24.7399 12.1277 25.0243 11.79 25.6644 11.79H28.1542C28.9012 11.79 29.061 12.1633 28.9012 12.6968C28.5988 14.1545 25.5579 18.4212 25.5579 18.4392C25.2911 18.8482 25.1845 19.0616 25.5579 19.5415C26.2746 20.4347 31.4975 25.1514 28.5102 25.3019Z" fill="#3A3F3F"/>
</svg>
